<svg id="visual" viewBox="0 0 960 540" width="960" height="540" xmlns="http://www.w3.org/2000/svg" xmlns:xlink="http://www.w3.org/1999/xlink" version="1.1"><rect x="0" y="0" width="960" height="540" fill="#022100"></rect><defs><linearGradient id="grad1_0" x1="43.8%" y1="100%" x2="100%" y2="0%"><stop offset="14.444444444444446%" stop-color="#022100" stop-opacity="1"></stop><stop offset="85.55555555555554%" stop-color="#022100" stop-opacity="1"></stop></linearGradient></defs><defs><linearGradient id="grad2_0" x1="0%" y1="100%" x2="56.3%" y2="0%"><stop offset="14.444444444444446%" stop-color="#022100" stop-opacity="1"></stop><stop offset="85.55555555555554%" stop-color="#022100" stop-opacity="1"></stop></linearGradient></defs><g transform="translate(960, 540)"><path d="M-378 0C-376.3 -80.2 -374.5 -160.4 -327.4 -189C-280.2 -217.6 -187.6 -194.5 -125.5 -217.4C-63.4 -240.3 -31.7 -309.1 0 -378L0 0Z" fill="#d5c200"></path></g><g transform="translate(0, 0)"><path d="M378 0C379 85 380 169.9 327.4 189C274.7 208.1 168.5 161.3 105 181.9C41.5 202.4 20.8 290.2 0 378L0 0Z" fill="#d5c200"></path></g></svg>