<svg id="visual" viewBox="0 0 540 960" width="540" height="960" xmlns="http://www.w3.org/2000/svg" xmlns:xlink="http://www.w3.org/1999/xlink" version="1.1"><g><g transform="translate(144 491)"><path d="M103 -106.5C129.9 -76.2 145.6 -38.1 149.6 4C153.5 46 145.8 92 118.9 117.1C92 142.2 46 146.3 6.5 139.8C-32.9 133.2 -65.9 116 -98.2 91C-130.6 65.9 -162.3 32.9 -164 -1.6C-165.6 -36.2 -137.1 -72.4 -104.8 -102.8C-72.4 -133.1 -36.2 -157.5 0.9 -158.5C38.1 -159.4 76.2 -136.8 103 -106.5Z" fill="#d5c200"></path></g><g transform="translate(23 23)"><path d="M33.3 -35C41.6 -25.1 45.6 -12.5 44.6 -0.9C43.7 10.6 37.8 21.3 29.6 30.3C21.3 39.3 10.6 46.7 -1.4 48.1C-13.4 49.4 -26.7 44.8 -38 35.8C-49.3 26.7 -58.6 13.4 -57.3 1.2C-56.1 -10.9 -44.4 -21.8 -33.1 -31.8C-21.8 -41.7 -10.9 -50.7 0.8 -51.5C12.5 -52.3 25.1 -45 33.3 -35Z" fill="#d5c200"></path></g><g transform="translate(500 11)"><path d="M93.6 -100.1C114.3 -72.9 119.2 -36.5 118.3 -0.9C117.4 34.7 110.7 69.3 90 89.9C69.3 110.5 34.7 117.1 -5.3 122.5C-45.3 127.8 -90.7 131.9 -117.4 111.3C-144.2 90.7 -152.5 45.3 -145 7.5C-137.5 -30.4 -114.3 -60.7 -87.5 -87.9C-60.7 -115.1 -30.4 -139.2 3.1 -142.2C36.5 -145.3 72.9 -127.3 93.6 -100.1Z" fill="#d5c200"></path></g><g transform="translate(463 849)"><path d="M85.5 -83.9C109.2 -61.9 125.6 -30.9 124.1 -1.5C122.6 28 103.3 56 79.6 79.9C56 103.9 28 123.9 -1.3 125.1C-30.5 126.4 -61 109 -82.9 85C-104.9 61 -118.2 30.5 -115.2 3C-112.1 -24.5 -92.8 -48.9 -70.8 -70.9C-48.9 -92.9 -24.5 -112.4 3.2 -115.7C30.9 -118.9 61.9 -105.9 85.5 -83.9Z" fill="#d5c200"></path></g></g></svg>