<svg id="visual" viewBox="0 0 960 540" width="960" height="540" xmlns="http://www.w3.org/2000/svg" xmlns:xlink="http://www.w3.org/1999/xlink" version="1.1"><rect x="0" y="0" width="960" height="540" fill="#022100"></rect><g transform="translate(489.57046637112234 274.0514291783502)"><path d="M141.8 -197.6C182 -194.9 211.5 -152.5 223.2 -107.6C234.9 -62.7 228.8 -15.3 206.7 18.6C184.5 52.6 146.3 73.1 120.1 104.9C93.8 136.6 79.6 179.6 54.5 188C29.5 196.4 -6.4 170.2 -50.2 161.5C-93.9 152.9 -145.6 161.9 -161.5 141.2C-177.4 120.5 -157.5 70.2 -175.8 18.3C-194.1 -33.5 -250.5 -86.9 -248.1 -122.1C-245.8 -157.4 -184.5 -174.6 -133.3 -172.3C-82.2 -170.1 -41.1 -148.3 4.9 -155.9C50.8 -163.5 101.6 -200.3 141.8 -197.6" fill="#BB004B"></path></g></svg>