<svg id="visual" viewBox="0 0 960 540" width="960" height="540" xmlns="http://www.w3.org/2000/svg" xmlns:xlink="http://www.w3.org/1999/xlink" version="1.1"><rect x="0" y="0" width="960" height="540" fill="#022100"></rect><defs><linearGradient id="grad1_0" x1="43.8%" y1="100%" x2="100%" y2="0%"><stop offset="14.444444444444446%" stop-color="#d5c200" stop-opacity="1"></stop><stop offset="85.55555555555554%" stop-color="#d5c200" stop-opacity="1"></stop></linearGradient></defs><defs><linearGradient id="grad1_1" x1="43.8%" y1="100%" x2="100%" y2="0%"><stop offset="14.444444444444446%" stop-color="#d5c200" stop-opacity="1"></stop><stop offset="85.55555555555554%" stop-color="#aaac05" stop-opacity="1"></stop></linearGradient></defs><defs><linearGradient id="grad1_2" x1="43.8%" y1="100%" x2="100%" y2="0%"><stop offset="14.444444444444446%" stop-color="#84950c" stop-opacity="1"></stop><stop offset="85.55555555555554%" stop-color="#aaac05" stop-opacity="1"></stop></linearGradient></defs><defs><linearGradient id="grad1_3" x1="43.8%" y1="100%" x2="100%" y2="0%"><stop offset="14.444444444444446%" stop-color="#84950c" stop-opacity="1"></stop><stop offset="85.55555555555554%" stop-color="#617d11" stop-opacity="1"></stop></linearGradient></defs><defs><linearGradient id="grad1_4" x1="43.8%" y1="100%" x2="100%" y2="0%"><stop offset="14.444444444444446%" stop-color="#436512" stop-opacity="1"></stop><stop offset="85.55555555555554%" stop-color="#617d11" stop-opacity="1"></stop></linearGradient></defs><defs><linearGradient id="grad1_5" x1="43.8%" y1="100%" x2="100%" y2="0%"><stop offset="14.444444444444446%" stop-color="#436512" stop-opacity="1"></stop><stop offset="85.55555555555554%" stop-color="#294e10" stop-opacity="1"></stop></linearGradient></defs><defs><linearGradient id="grad1_6" x1="43.8%" y1="100%" x2="100%" y2="0%"><stop offset="14.444444444444446%" stop-color="#12370c" stop-opacity="1"></stop><stop offset="85.55555555555554%" stop-color="#294e10" stop-opacity="1"></stop></linearGradient></defs><defs><linearGradient id="grad1_7" x1="43.8%" y1="100%" x2="100%" y2="0%"><stop offset="14.444444444444446%" stop-color="#12370c" stop-opacity="1"></stop><stop offset="85.55555555555554%" stop-color="#022100" stop-opacity="1"></stop></linearGradient></defs><defs><linearGradient id="grad2_0" x1="0%" y1="100%" x2="56.3%" y2="0%"><stop offset="14.444444444444446%" stop-color="#d5c200" stop-opacity="1"></stop><stop offset="85.55555555555554%" stop-color="#d5c200" stop-opacity="1"></stop></linearGradient></defs><defs><linearGradient id="grad2_1" x1="0%" y1="100%" x2="56.3%" y2="0%"><stop offset="14.444444444444446%" stop-color="#aaac05" stop-opacity="1"></stop><stop offset="85.55555555555554%" stop-color="#d5c200" stop-opacity="1"></stop></linearGradient></defs><defs><linearGradient id="grad2_2" x1="0%" y1="100%" x2="56.3%" y2="0%"><stop offset="14.444444444444446%" stop-color="#aaac05" stop-opacity="1"></stop><stop offset="85.55555555555554%" stop-color="#84950c" stop-opacity="1"></stop></linearGradient></defs><defs><linearGradient id="grad2_3" x1="0%" y1="100%" x2="56.3%" y2="0%"><stop offset="14.444444444444446%" stop-color="#617d11" stop-opacity="1"></stop><stop offset="85.55555555555554%" stop-color="#84950c" stop-opacity="1"></stop></linearGradient></defs><defs><linearGradient id="grad2_4" x1="0%" y1="100%" x2="56.3%" y2="0%"><stop offset="14.444444444444446%" stop-color="#617d11" stop-opacity="1"></stop><stop offset="85.55555555555554%" stop-color="#436512" stop-opacity="1"></stop></linearGradient></defs><defs><linearGradient id="grad2_5" x1="0%" y1="100%" x2="56.3%" y2="0%"><stop offset="14.444444444444446%" stop-color="#294e10" stop-opacity="1"></stop><stop offset="85.55555555555554%" stop-color="#436512" stop-opacity="1"></stop></linearGradient></defs><defs><linearGradient id="grad2_6" x1="0%" y1="100%" x2="56.3%" y2="0%"><stop offset="14.444444444444446%" stop-color="#294e10" stop-opacity="1"></stop><stop offset="85.55555555555554%" stop-color="#12370c" stop-opacity="1"></stop></linearGradient></defs><defs><linearGradient id="grad2_7" x1="0%" y1="100%" x2="56.3%" y2="0%"><stop offset="14.444444444444446%" stop-color="#022100" stop-opacity="1"></stop><stop offset="85.55555555555554%" stop-color="#12370c" stop-opacity="1"></stop></linearGradient></defs><g transform="translate(960, 540)"><path d="M-243 0C-242.1 -52 -241.2 -103.9 -210.4 -121.5C-179.7 -139.1 -119.1 -122.3 -79 -136.8C-38.9 -151.4 -19.5 -197.2 0 -243L0 0Z" fill="#092c07"></path><path d="M-212.6 0C-211.8 -45.5 -211.1 -90.9 -184.1 -106.3C-157.2 -121.7 -104.2 -107 -69.1 -119.7C-34.1 -132.4 -17 -172.5 0 -212.6L0 0Z" fill="#1d420f"></path><path d="M-182.2 0C-181.6 -39 -180.9 -77.9 -157.8 -91.1C-134.8 -104.3 -89.3 -91.7 -59.3 -102.6C-29.2 -113.5 -14.6 -147.9 0 -182.2L0 0Z" fill="#355a12"></path><path d="M-151.9 0C-151.3 -32.5 -150.8 -64.9 -131.5 -75.9C-112.3 -86.9 -74.4 -76.4 -49.4 -85.5C-24.3 -94.6 -12.2 -123.2 0 -151.9L0 0Z" fill="#527112"></path><path d="M-121.5 0C-121.1 -26 -120.6 -52 -105.2 -60.8C-89.8 -69.5 -59.5 -61.2 -39.5 -68.4C-19.5 -75.7 -9.7 -98.6 0 -121.5L0 0Z" fill="#72890f"></path><path d="M-91.1 0C-90.8 -19.5 -90.5 -39 -78.9 -45.6C-67.4 -52.2 -44.6 -45.9 -29.6 -51.3C-14.6 -56.8 -7.3 -73.9 0 -91.1L0 0Z" fill="#97a009"></path><path d="M-60.7 0C-60.5 -13 -60.3 -26 -52.6 -30.4C-44.9 -34.8 -29.8 -30.6 -19.8 -34.2C-9.7 -37.8 -4.9 -49.3 0 -60.7L0 0Z" fill="#bfb702"></path><path d="M-30.4 0C-30.3 -6.5 -30.2 -13 -26.3 -15.2C-22.5 -17.4 -14.9 -15.3 -9.9 -17.1C-4.9 -18.9 -2.4 -24.6 0 -30.4L0 0Z" fill="#d5c200"></path></g><g transform="translate(0, 0)"><path d="M243 0C240.4 49.1 237.9 98.1 210.4 121.5C183 144.9 130.7 142.5 91.5 158.5C52.3 174.4 26.1 208.7 0 243L0 0Z" fill="#092c07"></path><path d="M212.6 0C210.4 42.9 208.1 85.9 184.1 106.3C160.1 126.8 114.4 124.7 80.1 138.7C45.7 152.6 22.9 182.6 0 212.6L0 0Z" fill="#1d420f"></path><path d="M182.3 0C180.3 36.8 178.4 73.6 157.8 91.1C137.3 108.6 98 106.9 68.6 118.9C39.2 130.8 19.6 156.5 0 182.3L0 0Z" fill="#355a12"></path><path d="M151.9 0C150.3 30.7 148.7 61.3 131.5 75.9C114.4 90.5 81.7 89.1 57.2 99.1C32.7 109 16.3 130.5 0 151.9L0 0Z" fill="#527112"></path><path d="M121.5 0C120.2 24.5 118.9 49.1 105.2 60.7C91.5 72.4 65.4 71.3 45.8 79.2C26.1 87.2 13.1 104.4 0 121.5L0 0Z" fill="#72890f"></path><path d="M91.1 0C90.2 18.4 89.2 36.8 78.9 45.6C68.6 54.3 49 53.4 34.3 59.4C19.6 65.4 9.8 78.3 0 91.1L0 0Z" fill="#97a009"></path><path d="M60.8 0C60.1 12.3 59.5 24.5 52.6 30.4C45.8 36.2 32.7 35.6 22.9 39.6C13.1 43.6 6.5 52.2 0 60.8L0 0Z" fill="#bfb702"></path><path d="M30.4 0C30.1 6.1 29.7 12.3 26.3 15.2C22.9 18.1 16.3 17.8 11.4 19.8C6.5 21.8 3.3 26.1 0 30.4L0 0Z" fill="#d5c200"></path></g></svg>