<svg id="visual" viewBox="0 0 960 540" width="960" height="540" xmlns="http://www.w3.org/2000/svg" xmlns:xlink="http://www.w3.org/1999/xlink" version="1.1"><rect x="0" y="0" width="960" height="540" fill="#150021"></rect><path d="M0 297L120 288L240 363L360 356L480 325L600 288L720 367L840 341L960 300L960 541L840 541L720 541L600 541L480 541L360 541L240 541L120 541L0 541Z" fill="#d5c200"></path><path d="M0 376L120 392L240 379L360 328L480 385L600 348L720 382L840 371L960 341L960 541L840 541L720 541L600 541L480 541L360 541L240 541L120 541L0 541Z" fill="#c8ab00"></path><path d="M0 376L120 422L240 365L360 371L480 396L600 388L720 369L840 387L960 425L960 541L840 541L720 541L600 541L480 541L360 541L240 541L120 541L0 541Z" fill="#ba9400"></path><path d="M0 404L120 423L240 421L360 416L480 403L600 422L720 405L840 413L960 445L960 541L840 541L720 541L600 541L480 541L360 541L240 541L120 541L0 541Z" fill="#aa7e00"></path><path d="M0 453L120 450L240 475L360 461L480 462L600 494L720 487L840 475L960 486L960 541L840 541L720 541L600 541L480 541L360 541L240 541L120 541L0 541Z" fill="#996a00"></path><path d="M0 480L120 493L240 483L360 480L480 518L600 487L720 514L840 496L960 498L960 541L840 541L720 541L600 541L480 541L360 541L240 541L120 541L0 541Z" fill="#875600"></path></svg>