<svg id="visual" viewBox="0 0 960 540" width="960" height="540" xmlns="http://www.w3.org/2000/svg" xmlns:xlink="http://www.w3.org/1999/xlink" version="1.1"><rect x="0" y="0" width="960" height="540" fill="#150021"></rect><path d="M0 326L120 307L240 339L360 305L480 351L600 310L720 358L840 295L960 303L960 541L840 541L720 541L600 541L480 541L360 541L240 541L120 541L0 541Z" fill="#d5c200"></path><path d="M0 361L120 364L240 347L360 392L480 372L600 385L720 365L840 358L960 348L960 541L840 541L720 541L600 541L480 541L360 541L240 541L120 541L0 541Z" fill="#c8ab00"></path><path d="M0 404L120 430L240 430L360 397L480 426L600 380L720 367L840 427L960 420L960 541L840 541L720 541L600 541L480 541L360 541L240 541L120 541L0 541Z" fill="#ba9400"></path><path d="M0 410L120 434L240 441L360 431L480 438L600 427L720 429L840 452L960 424L960 541L840 541L720 541L600 541L480 541L360 541L240 541L120 541L0 541Z" fill="#aa7e00"></path><path d="M0 451L120 466L240 465L360 477L480 436L600 488L720 471L840 467L960 492L960 541L840 541L720 541L600 541L480 541L360 541L240 541L120 541L0 541Z" fill="#996a00"></path><path d="M0 502L120 506L240 477L360 526L480 513L600 509L720 523L840 512L960 509L960 541L840 541L720 541L600 541L480 541L360 541L240 541L120 541L0 541Z" fill="#875600"></path></svg>