<svg id="visual" viewBox="0 0 960 540" width="960" height="540" xmlns="http://www.w3.org/2000/svg" xmlns:xlink="http://www.w3.org/1999/xlink" version="1.1"><path d="M0 87L8.5 86.2C17 85.3 34 83.7 50.8 88.2C67.7 92.7 84.3 103.3 101.2 97C118 90.7 135 67.3 151.8 58.3C168.7 49.3 185.3 54.7 202.2 62.8C219 71 236 82 252.8 83.8C269.7 85.7 286.3 78.3 303.2 68.3C320 58.3 337 45.7 353.8 45.7C370.7 45.7 387.3 58.3 404.2 65.7C421 73 438 75 454.8 76.8C471.7 78.7 488.3 80.3 505.2 73C522 65.7 539 49.3 555.8 49.3C572.7 49.3 589.3 65.7 606.2 67.5C623 69.3 640 56.7 656.8 50.3C673.7 44 690.3 44 707.2 54C724 64 741 84 757.8 85C774.7 86 791.3 68 808.2 65.2C825 62.3 842 74.7 858.8 77.3C875.7 80 892.3 73 909.2 70.3C926 67.7 943 69.3 951.5 70.2L960 71L960 0L951.5 0C943 0 926 0 909.2 0C892.3 0 875.7 0 858.8 0C842 0 825 0 808.2 0C791.3 0 774.7 0 757.8 0C741 0 724 0 707.2 0C690.3 0 673.7 0 656.8 0C640 0 623 0 606.2 0C589.3 0 572.7 0 555.8 0C539 0 522 0 505.2 0C488.3 0 471.7 0 454.8 0C438 0 421 0 404.2 0C387.3 0 370.7 0 353.8 0C337 0 320 0 303.2 0C286.3 0 269.7 0 252.8 0C236 0 219 0 202.2 0C185.3 0 168.7 0 151.8 0C135 0 118 0 101.2 0C84.3 0 67.7 0 50.8 0C34 0 17 0 8.5 0L0 0Z" fill="#022100"></path><path d="M0 136L8.5 142.3C17 148.7 34 161.3 50.8 173C67.7 184.7 84.3 195.3 101.2 197.2C118 199 135 192 151.8 183C168.7 174 185.3 163 202.2 161.2C219 159.3 236 166.7 252.8 170.3C269.7 174 286.3 174 303.2 175.8C320 177.7 337 181.3 353.8 175C370.7 168.7 387.3 152.3 404.2 154C421 155.7 438 175.3 454.8 182.5C471.7 189.7 488.3 184.3 505.2 174.5C522 164.7 539 150.3 555.8 156.7C572.7 163 589.3 190 606.2 194.5C623 199 640 181 656.8 176.5C673.7 172 690.3 181 707.2 179.2C724 177.3 741 164.7 757.8 157.5C774.7 150.3 791.3 148.7 808.2 155C825 161.3 842 175.7 858.8 182.8C875.7 190 892.3 190 909.2 187.3C926 184.7 943 179.3 951.5 176.7L960 174L960 69L951.5 68.2C943 67.3 926 65.7 909.2 68.3C892.3 71 875.7 78 858.8 75.3C842 72.7 825 60.3 808.2 63.2C791.3 66 774.7 84 757.8 83C741 82 724 62 707.2 52C690.3 42 673.7 42 656.8 48.3C640 54.7 623 67.3 606.2 65.5C589.3 63.7 572.7 47.3 555.8 47.3C539 47.3 522 63.7 505.2 71C488.3 78.3 471.7 76.7 454.8 74.8C438 73 421 71 404.2 63.7C387.3 56.3 370.7 43.7 353.8 43.7C337 43.7 320 56.3 303.2 66.3C286.3 76.3 269.7 83.7 252.8 81.8C236 80 219 69 202.2 60.8C185.3 52.7 168.7 47.3 151.8 56.3C135 65.3 118 88.7 101.2 95C84.3 101.3 67.7 90.7 50.8 86.2C34 81.7 17 83.3 8.5 84.2L0 85Z" fill="#0d300a"></path><path d="M0 271L8.5 272.8C17 274.7 34 278.3 50.8 287.3C67.7 296.3 84.3 310.7 101.2 314.2C118 317.7 135 310.3 151.8 301.3C168.7 292.3 185.3 281.7 202.2 280.8C219 280 236 289 252.8 299.8C269.7 310.7 286.3 323.3 303.2 322.5C320 321.7 337 307.3 353.8 295.7C370.7 284 387.3 275 404.2 274C421 273 438 280 454.8 277.2C471.7 274.3 488.3 261.7 505.2 256.3C522 251 539 253 555.8 260.3C572.7 267.7 589.3 280.3 606.2 287.5C623 294.7 640 296.3 656.8 290C673.7 283.7 690.3 269.3 707.2 269.3C724 269.3 741 283.7 757.8 290C774.7 296.3 791.3 294.7 808.2 291C825 287.3 842 281.7 858.8 278C875.7 274.3 892.3 272.7 909.2 273.7C926 274.7 943 278.3 951.5 280.2L960 282L960 172L951.5 174.7C943 177.3 926 182.7 909.2 185.3C892.3 188 875.7 188 858.8 180.8C842 173.7 825 159.3 808.2 153C791.3 146.7 774.7 148.3 757.8 155.5C741 162.7 724 175.3 707.2 177.2C690.3 179 673.7 170 656.8 174.5C640 179 623 197 606.2 192.5C589.3 188 572.7 161 555.8 154.7C539 148.3 522 162.7 505.2 172.5C488.3 182.3 471.7 187.7 454.8 180.5C438 173.3 421 153.7 404.2 152C387.3 150.3 370.7 166.7 353.8 173C337 179.3 320 175.7 303.2 173.8C286.3 172 269.7 172 252.8 168.3C236 164.7 219 157.3 202.2 159.2C185.3 161 168.7 172 151.8 181C135 190 118 197 101.2 195.2C84.3 193.3 67.7 182.7 50.8 171C34 159.3 17 146.7 8.5 140.3L0 134Z" fill="#1b400e"></path><path d="M0 287L8.5 289.7C17 292.3 34 297.7 50.8 309.3C67.7 321 84.3 339 101.2 340.8C118 342.7 135 328.3 151.8 318.5C168.7 308.7 185.3 303.3 202.2 306C219 308.7 236 319.3 252.8 327.5C269.7 335.7 286.3 341.3 303.2 338.7C320 336 337 325 353.8 316C370.7 307 387.3 300 404.2 300C421 300 438 307 454.8 301.5C471.7 296 488.3 278 505.2 270C522 262 539 264 555.8 274C572.7 284 589.3 302 606.2 310C623 318 640 316 656.8 307.8C673.7 299.7 690.3 285.3 707.2 285.3C724 285.3 741 299.7 757.8 305C774.7 310.3 791.3 306.7 808.2 302.2C825 297.7 842 292.3 858.8 291.5C875.7 290.7 892.3 294.3 909.2 295.3C926 296.3 943 294.7 951.5 293.8L960 293L960 280L951.5 278.2C943 276.3 926 272.7 909.2 271.7C892.3 270.7 875.7 272.3 858.8 276C842 279.7 825 285.3 808.2 289C791.3 292.7 774.7 294.3 757.8 288C741 281.7 724 267.3 707.2 267.3C690.3 267.3 673.7 281.7 656.8 288C640 294.3 623 292.7 606.2 285.5C589.3 278.3 572.7 265.7 555.8 258.3C539 251 522 249 505.2 254.3C488.3 259.7 471.7 272.3 454.8 275.2C438 278 421 271 404.2 272C387.3 273 370.7 282 353.8 293.7C337 305.3 320 319.7 303.2 320.5C286.3 321.3 269.7 308.7 252.8 297.8C236 287 219 278 202.2 278.8C185.3 279.7 168.7 290.3 151.8 299.3C135 308.3 118 315.7 101.2 312.2C84.3 308.7 67.7 294.3 50.8 285.3C34 276.3 17 272.7 8.5 270.8L0 269Z" fill="#2b5011"></path><path d="M0 303L8.5 307.5C17 312 34 321 50.8 334.5C67.7 348 84.3 366 101.2 367.8C118 369.7 135 355.3 151.8 346.3C168.7 337.3 185.3 333.7 202.2 338.2C219 342.7 236 355.3 252.8 364.3C269.7 373.3 286.3 378.7 303.2 375.2C320 371.7 337 359.3 353.8 347.7C370.7 336 387.3 325 404.2 321.3C421 317.7 438 321.3 454.8 316.8C471.7 312.3 488.3 299.7 505.2 293.3C522 287 539 287 555.8 298.7C572.7 310.3 589.3 333.7 606.2 340C623 346.3 640 335.7 656.8 326.7C673.7 317.7 690.3 310.3 707.2 314C724 317.7 741 332.3 757.8 336C774.7 339.7 791.3 332.3 808.2 325C825 317.7 842 310.3 858.8 307.7C875.7 305 892.3 307 909.2 310.7C926 314.3 943 319.7 951.5 322.3L960 325L960 291L951.5 291.8C943 292.7 926 294.3 909.2 293.3C892.3 292.3 875.7 288.7 858.8 289.5C842 290.3 825 295.7 808.2 300.2C791.3 304.7 774.7 308.3 757.8 303C741 297.7 724 283.3 707.2 283.3C690.3 283.3 673.7 297.7 656.8 305.8C640 314 623 316 606.2 308C589.3 300 572.7 282 555.8 272C539 262 522 260 505.2 268C488.3 276 471.7 294 454.8 299.5C438 305 421 298 404.2 298C387.3 298 370.7 305 353.8 314C337 323 320 334 303.2 336.7C286.3 339.3 269.7 333.7 252.8 325.5C236 317.3 219 306.7 202.2 304C185.3 301.3 168.7 306.7 151.8 316.5C135 326.3 118 340.7 101.2 338.8C84.3 337 67.7 319 50.8 307.3C34 295.7 17 290.3 8.5 287.7L0 285Z" fill="#3e6012"></path><path d="M0 357L8.5 364.3C17 371.7 34 386.3 50.8 398.2C67.7 410 84.3 419 101.2 418C118 417 135 406 151.8 400.5C168.7 395 185.3 395 202.2 396C219 397 236 399 252.8 404.5C269.7 410 286.3 419 303.2 415.3C320 411.7 337 395.3 353.8 389C370.7 382.7 387.3 386.3 404.2 391.7C421 397 438 404 454.8 399.5C471.7 395 488.3 379 505.2 369.2C522 359.3 539 355.7 555.8 361C572.7 366.3 589.3 380.7 606.2 386C623 391.3 640 387.7 656.8 381.3C673.7 375 690.3 366 707.2 375C724 384 741 411 757.8 410.2C774.7 409.3 791.3 380.7 808.2 368.2C825 355.7 842 359.3 858.8 359.3C875.7 359.3 892.3 355.7 909.2 354.7C926 353.7 943 355.3 951.5 356.2L960 357L960 323L951.5 320.3C943 317.7 926 312.3 909.2 308.7C892.3 305 875.7 303 858.8 305.7C842 308.3 825 315.7 808.2 323C791.3 330.3 774.7 337.7 757.8 334C741 330.3 724 315.7 707.2 312C690.3 308.3 673.7 315.7 656.8 324.7C640 333.7 623 344.3 606.2 338C589.3 331.7 572.7 308.3 555.8 296.7C539 285 522 285 505.2 291.3C488.3 297.7 471.7 310.3 454.8 314.8C438 319.3 421 315.7 404.2 319.3C387.3 323 370.7 334 353.8 345.7C337 357.3 320 369.7 303.2 373.2C286.3 376.7 269.7 371.3 252.8 362.3C236 353.3 219 340.7 202.2 336.2C185.3 331.7 168.7 335.3 151.8 344.3C135 353.3 118 367.7 101.2 365.8C84.3 364 67.7 346 50.8 332.5C34 319 17 310 8.5 305.5L0 301Z" fill="#527112"></path><path d="M0 395L8.5 404C17 413 34 431 50.8 441.8C67.7 452.7 84.3 456.3 101.2 452.8C118 449.3 135 438.7 151.8 436C168.7 433.3 185.3 438.7 202.2 441.3C219 444 236 444 252.8 444C269.7 444 286.3 444 303.2 435.8C320 427.7 337 411.3 353.8 407.7C370.7 404 387.3 413 404.2 418.5C421 424 438 426 454.8 424.2C471.7 422.3 488.3 416.7 505.2 406.7C522 396.7 539 382.3 555.8 386C572.7 389.7 589.3 411.3 606.2 421.3C623 431.3 640 429.7 656.8 419.8C673.7 410 690.3 392 707.2 396.5C724 401 741 428 757.8 430.7C774.7 433.3 791.3 411.7 808.2 403.5C825 395.3 842 400.7 858.8 402.5C875.7 404.3 892.3 402.7 909.2 397.3C926 392 943 383 951.5 378.5L960 374L960 355L951.5 354.2C943 353.3 926 351.7 909.2 352.7C892.3 353.7 875.7 357.3 858.8 357.3C842 357.3 825 353.7 808.2 366.2C791.3 378.7 774.7 407.3 757.8 408.2C741 409 724 382 707.2 373C690.3 364 673.7 373 656.8 379.3C640 385.7 623 389.3 606.2 384C589.3 378.7 572.7 364.3 555.8 359C539 353.7 522 357.3 505.2 367.2C488.3 377 471.7 393 454.8 397.5C438 402 421 395 404.2 389.7C387.3 384.3 370.7 380.7 353.8 387C337 393.3 320 409.7 303.2 413.3C286.3 417 269.7 408 252.8 402.5C236 397 219 395 202.2 394C185.3 393 168.7 393 151.8 398.5C135 404 118 415 101.2 416C84.3 417 67.7 408 50.8 396.2C34 384.3 17 369.7 8.5 362.3L0 355Z" fill="#688210"></path><path d="M0 411L8.5 421C17 431 34 451 50.8 461.8C67.7 472.7 84.3 474.3 101.2 469.8C118 465.3 135 454.7 151.8 451.2C168.7 447.7 185.3 451.3 202.2 454.8C219 458.3 236 461.7 252.8 464.3C269.7 467 286.3 469 303.2 461.8C320 454.7 337 438.3 353.8 432.8C370.7 427.3 387.3 432.7 404.2 438.2C421 443.7 438 449.3 454.8 446.7C471.7 444 488.3 433 505.2 424C522 415 539 408 555.8 412.5C572.7 417 589.3 433 606.2 442.8C623 452.7 640 456.3 656.8 450C673.7 443.7 690.3 427.3 707.2 430C724 432.7 741 454.3 757.8 452.7C774.7 451 791.3 426 808.2 419.7C825 413.3 842 425.7 858.8 430.2C875.7 434.7 892.3 431.3 909.2 425.2C926 419 943 410 951.5 405.5L960 401L960 372L951.5 376.5C943 381 926 390 909.2 395.3C892.3 400.7 875.7 402.3 858.8 400.5C842 398.7 825 393.3 808.2 401.5C791.3 409.7 774.7 431.3 757.8 428.7C741 426 724 399 707.2 394.5C690.3 390 673.7 408 656.8 417.8C640 427.7 623 429.3 606.2 419.3C589.3 409.3 572.7 387.7 555.8 384C539 380.3 522 394.7 505.2 404.7C488.3 414.7 471.7 420.3 454.8 422.2C438 424 421 422 404.2 416.5C387.3 411 370.7 402 353.8 405.7C337 409.3 320 425.7 303.2 433.8C286.3 442 269.7 442 252.8 442C236 442 219 442 202.2 439.3C185.3 436.7 168.7 431.3 151.8 434C135 436.7 118 447.3 101.2 450.8C84.3 454.3 67.7 450.7 50.8 439.8C34 429 17 411 8.5 402L0 393Z" fill="#80920d"></path><path d="M0 465L8.5 471.3C17 477.7 34 490.3 50.8 496.7C67.7 503 84.3 503 101.2 496.7C118 490.3 135 477.7 151.8 474.2C168.7 470.7 185.3 476.3 202.2 480C219 483.7 236 485.3 252.8 488.8C269.7 492.3 286.3 497.7 303.2 494C320 490.3 337 477.7 353.8 472.3C370.7 467 387.3 469 404.2 473.5C421 478 438 485 454.8 481.3C471.7 477.7 488.3 463.3 505.2 458.8C522 454.3 539 459.7 555.8 464.2C572.7 468.7 589.3 472.3 606.2 476.8C623 481.3 640 486.7 656.8 482.2C673.7 477.7 690.3 463.3 707.2 464.3C724 465.3 741 481.7 757.8 484.3C774.7 487 791.3 476 808.2 474.2C825 472.3 842 479.7 858.8 483.3C875.7 487 892.3 487 909.2 482.5C926 478 943 469 951.5 464.5L960 460L960 399L951.5 403.5C943 408 926 417 909.2 423.2C892.3 429.3 875.7 432.7 858.8 428.2C842 423.7 825 411.3 808.2 417.7C791.3 424 774.7 449 757.8 450.7C741 452.3 724 430.7 707.2 428C690.3 425.3 673.7 441.7 656.8 448C640 454.3 623 450.7 606.2 440.8C589.3 431 572.7 415 555.8 410.5C539 406 522 413 505.2 422C488.3 431 471.7 442 454.8 444.7C438 447.3 421 441.7 404.2 436.2C387.3 430.7 370.7 425.3 353.8 430.8C337 436.3 320 452.7 303.2 459.8C286.3 467 269.7 465 252.8 462.3C236 459.7 219 456.3 202.2 452.8C185.3 449.3 168.7 445.7 151.8 449.2C135 452.7 118 463.3 101.2 467.8C84.3 472.3 67.7 470.7 50.8 459.8C34 449 17 429 8.5 419L0 409Z" fill="#9ba208"></path><path d="M0 498L8.5 502.5C17 507 34 516 50.8 520.5C67.7 525 84.3 525 101.2 524C118 523 135 521 151.8 520C168.7 519 185.3 519 202.2 516.3C219 513.7 236 508.3 252.8 509.3C269.7 510.3 286.3 517.7 303.2 518.7C320 519.7 337 514.3 353.8 509.8C370.7 505.3 387.3 501.7 404.2 503.3C421 505 438 512 454.8 512.8C471.7 513.7 488.3 508.3 505.2 504.8C522 501.3 539 499.7 555.8 501.5C572.7 503.3 589.3 508.7 606.2 511.3C623 514 640 514 656.8 512.2C673.7 510.3 690.3 506.7 707.2 508.5C724 510.3 741 517.7 757.8 516.8C774.7 516 791.3 507 808.2 503.3C825 499.7 842 501.3 858.8 503.2C875.7 505 892.3 507 909.2 506.2C926 505.3 943 501.7 951.5 499.8L960 498L960 458L951.5 462.5C943 467 926 476 909.2 480.5C892.3 485 875.7 485 858.8 481.3C842 477.7 825 470.3 808.2 472.2C791.3 474 774.7 485 757.8 482.3C741 479.7 724 463.3 707.2 462.3C690.3 461.3 673.7 475.7 656.8 480.2C640 484.7 623 479.3 606.2 474.8C589.3 470.3 572.7 466.7 555.8 462.2C539 457.7 522 452.3 505.2 456.8C488.3 461.3 471.7 475.7 454.8 479.3C438 483 421 476 404.2 471.5C387.3 467 370.7 465 353.8 470.3C337 475.7 320 488.3 303.2 492C286.3 495.7 269.7 490.3 252.8 486.8C236 483.3 219 481.7 202.2 478C185.3 474.3 168.7 468.7 151.8 472.2C135 475.7 118 488.3 101.2 494.7C84.3 501 67.7 501 50.8 494.7C34 488.3 17 475.7 8.5 469.3L0 463Z" fill="#b7b203"></path><path d="M0 541L8.5 541C17 541 34 541 50.8 541C67.7 541 84.3 541 101.2 541C118 541 135 541 151.8 541C168.7 541 185.3 541 202.2 541C219 541 236 541 252.8 541C269.7 541 286.3 541 303.2 541C320 541 337 541 353.8 541C370.7 541 387.3 541 404.2 541C421 541 438 541 454.8 541C471.7 541 488.3 541 505.2 541C522 541 539 541 555.8 541C572.7 541 589.3 541 606.2 541C623 541 640 541 656.8 541C673.7 541 690.3 541 707.2 541C724 541 741 541 757.8 541C774.7 541 791.3 541 808.2 541C825 541 842 541 858.8 541C875.7 541 892.3 541 909.2 541C926 541 943 541 951.5 541L960 541L960 496L951.5 497.8C943 499.7 926 503.3 909.2 504.2C892.3 505 875.7 503 858.8 501.2C842 499.3 825 497.7 808.2 501.3C791.3 505 774.7 514 757.8 514.8C741 515.7 724 508.3 707.2 506.5C690.3 504.7 673.7 508.3 656.8 510.2C640 512 623 512 606.2 509.3C589.3 506.7 572.7 501.3 555.8 499.5C539 497.7 522 499.3 505.2 502.8C488.3 506.3 471.7 511.7 454.8 510.8C438 510 421 503 404.2 501.3C387.3 499.7 370.7 503.3 353.8 507.8C337 512.3 320 517.7 303.2 516.7C286.3 515.7 269.7 508.3 252.8 507.3C236 506.3 219 511.7 202.2 514.3C185.3 517 168.7 517 151.8 518C135 519 118 521 101.2 522C84.3 523 67.7 523 50.8 518.5C34 514 17 505 8.5 500.5L0 496Z" fill="#d5c200"></path></svg>